REM DIRINDEX 1\2\3,1\2\4,1\2\5,1\2\6
REM DIRNAME cjc157,folder01,folder02,folder03,folder04,folder05
TITLE ""
FILE "117 117.mp3" MP3
  TRACK 01 AUDIO
    TITLE "0:"
    INDEX 01 00:00:00
  TRACK 02 AUDIO
    TITLE "3:cjc157_4349"
    INDEX 01 00:00:11
  TRACK 03 AUDIO
    TITLE "0:"
    INDEX 01 00:01:38
  TRACK 04 AUDIO
    TITLE "4:cjc157_4350"
    INDEX 01 00:02:08
  TRACK 05 AUDIO
    TITLE "0:"
    INDEX 01 00:03:19
  TRACK 06 AUDIO
    TITLE "5:cjc157_4351"
    INDEX 01 00:03:72
  TRACK 07 AUDIO
    TITLE "0:"
    INDEX 01 00:05:57
  TRACK 08 AUDIO
    TITLE "5:cjc157_4352"
    INDEX 01 00:06:31
  TRACK 09 AUDIO
    TITLE "0:"
    INDEX 01 00:08:28
  TRACK 10 AUDIO
    TITLE "3:cjc157_4353"
    INDEX 01 00:09:00
  TRACK 11 AUDIO
    TITLE "0:"
    INDEX 01 00:10:18
  TRACK 12 AUDIO
    TITLE "4:cjc157_4354"
    INDEX 01 00:10:66
  TRACK 13 AUDIO
    TITLE "0:"
    INDEX 01 00:12:07
  TRACK 14 AUDIO
    TITLE "5:cjc157_4355"
    INDEX 01 00:12:54
  TRACK 15 AUDIO
    TITLE "0:"
    INDEX 01 00:14:56
  TRACK 16 AUDIO
    TITLE "5:cjc157_4356"
    INDEX 01 00:15:27
  TRACK 17 AUDIO
    TITLE "0:"
    INDEX 01 00:17:16
  TRACK 18 AUDIO
    TITLE "5:cjc157_4357"
    INDEX 01 00:17:63
  TRACK 19 AUDIO
    TITLE "0:"
    INDEX 01 00:20:30
  TRACK 20 AUDIO
    TITLE "3:cjc157_4358"
    INDEX 01 00:21:00
  TRACK 21 AUDIO
    TITLE "0:"
    INDEX 01 00:22:17
  TRACK 22 AUDIO
    TITLE "4:cjc157_4359"
    INDEX 01 00:22:62
  TRACK 23 AUDIO
    TITLE "0:"
    INDEX 01 00:23:57
  TRACK 24 AUDIO
    TITLE "5:cjc157_4360"
    INDEX 01 00:24:31
  TRACK 25 AUDIO
    TITLE "0:"
    INDEX 01 00:26:46
  TRACK 26 AUDIO
    TITLE "3:cjc157_4361"
    INDEX 01 00:27:12
  TRACK 27 AUDIO
    TITLE "0:"
    INDEX 01 00:28:13
  TRACK 28 AUDIO
    TITLE "4:cjc157_4362"
    INDEX 01 00:28:66
  TRACK 29 AUDIO
    TITLE "0:"
    INDEX 01 00:29:72
  TRACK 30 AUDIO
    TITLE "5:cjc157_4363"
    INDEX 01 00:30:44
  TRACK 31 AUDIO
    TITLE "0:"
    INDEX 01 00:32:45
  TRACK 32 AUDIO
    TITLE "5:cjc157_4364"
    INDEX 01 00:33:13
  TRACK 33 AUDIO
    TITLE "0:"
    INDEX 01 00:34:65
  TRACK 34 AUDIO
    TITLE "3:cjc157_4365"
    INDEX 01 00:35:39
  TRACK 35 AUDIO
    TITLE "0:"
    INDEX 01 00:36:66
  TRACK 36 AUDIO
    TITLE "4:cjc157_4366"
    INDEX 01 00:37:34
  TRACK 37 AUDIO
    TITLE "0:"
    INDEX 01 00:38:43
  TRACK 38 AUDIO
    TITLE "5:cjc157_4367"
    INDEX 01 00:39:15
  TRACK 39 AUDIO
    TITLE "0:"
    INDEX 01 00:40:72
  TRACK 40 AUDIO
    TITLE "3:cjc157_4368"
    INDEX 01 00:41:45
  TRACK 41 AUDIO
    TITLE "0:"
    INDEX 01 00:42:74
  TRACK 42 AUDIO
    TITLE "4:cjc157_4369"
    INDEX 01 00:43:42
  TRACK 43 AUDIO
    TITLE "0:"
    INDEX 01 00:44:48
  TRACK 44 AUDIO
    TITLE "5:cjc157_4370"
    INDEX 01 00:45:18
  TRACK 45 AUDIO
    TITLE "0:"
    INDEX 01 00:47:62
  TRACK 46 AUDIO
    TITLE "5:cjc157_4371"
    INDEX 01 00:48:34
  TRACK 47 AUDIO
    TITLE "0:"
    INDEX 01 00:50:74
  TRACK 48 AUDIO
    TITLE "5:cjc157_4372"
    INDEX 01 00:51:44
  TRACK 49 AUDIO
    TITLE "0:"
    INDEX 01 00:53:74
  TRACK 50 AUDIO
    TITLE "3:cjc157_4373"
    INDEX 01 00:54:46
  TRACK 51 AUDIO
    TITLE "0:"
    INDEX 01 00:55:73
  TRACK 52 AUDIO
    TITLE "4:cjc157_4374"
    INDEX 01 00:56:43
  TRACK 53 AUDIO
    TITLE "0:"
    INDEX 01 00:57:56
  TRACK 54 AUDIO
    TITLE "5:cjc157_4375"
    INDEX 01 00:58:28
  TRACK 55 AUDIO
    TITLE "0:"
    INDEX 01 01:00:13
  TRACK 56 AUDIO
    TITLE "5:cjc157_4376"
    INDEX 01 01:00:64
  TRACK 57 AUDIO
    TITLE "0:"
    INDEX 01 01:04:39
  TRACK 58 AUDIO
    TITLE "3:cjc157_4377"
    INDEX 01 01:05:09
  TRACK 59 AUDIO
    TITLE "0:"
    INDEX 01 01:06:26
  TRACK 60 AUDIO
    TITLE "4:cjc157_4378"
    INDEX 01 01:06:73
  TRACK 61 AUDIO
    TITLE "0:"
    INDEX 01 01:08:07
  TRACK 62 AUDIO
    TITLE "5:cjc157_4379"
    INDEX 01 01:08:68
  TRACK 63 AUDIO
    TITLE "0:"
    INDEX 01 01:11:03
  TRACK 64 AUDIO
    TITLE "5:cjc157_4380"
    INDEX 01 01:11:51
  TRACK 65 AUDIO
    TITLE "0:"
    INDEX 01 01:13:57
  TRACK 66 AUDIO
    TITLE "3:cjc157_4381"
    INDEX 01 01:14:27
  TRACK 67 AUDIO
    TITLE "0:"
    INDEX 01 01:15:64
  TRACK 68 AUDIO
    TITLE "4:cjc157_4382"
    INDEX 01 01:16:36
  TRACK 69 AUDIO
    TITLE "0:"
    INDEX 01 01:17:55
  TRACK 70 AUDIO
    TITLE "5:cjc157_4383"
    INDEX 01 01:18:23
  TRACK 71 AUDIO
    TITLE "0:"
    INDEX 01 01:20:18
  TRACK 72 AUDIO
    TITLE "5:cjc157_4384"
    INDEX 01 01:20:59
  TRACK 73 AUDIO
    TITLE "0:"
    INDEX 01 01:22:46
  TRACK 74 AUDIO
    TITLE "3:cjc157_4385"
    INDEX 01 01:23:20
  TRACK 75 AUDIO
    TITLE "0:"
    INDEX 01 01:24:24
  TRACK 76 AUDIO
    TITLE "4:cjc157_4386"
    INDEX 01 01:24:73
  TRACK 77 AUDIO
    TITLE "0:"
    INDEX 01 01:26:19
  TRACK 78 AUDIO
    TITLE "5:cjc157_4387"
    INDEX 01 01:26:66
  TRACK 79 AUDIO
    TITLE "0:"
    INDEX 01 01:29:07
  TRACK 80 AUDIO
    TITLE "5:cjc157_4388"
    INDEX 01 01:29:56
  TRACK 81 AUDIO
    TITLE "0:"
    INDEX 01 01:32:29
